<?xml version="1.0" standalone="no"?>
<!DOCTYPE svg PUBLIC "-//W3C//DTD SVG 20010904//EN"
 "http://www.w3.org/TR/2001/REC-SVG-20010904/DTD/svg10.dtd">
<svg version="1.0" xmlns="http://www.w3.org/2000/svg"
 width="700.000000pt" height="700.000000pt" viewBox="0 0 700.000000 700.000000"
 preserveAspectRatio="xMidYMid meet">
<metadata>
Created by potrace 1.14, written by Peter Selinger 2001-2017
</metadata>
<g transform="translate(0.000000,700.000000) scale(0.100000,-0.100000)"
fill="#000000" stroke="none">
<path d="M3214 6121 c-2 -2 -4 -658 -4 -1458 l0 -1453 290 0 290 0 0 1458 0
1457 -286 0 c-157 0 -288 -2 -290 -4z"/>
<path d="M2068 5338 c-191 -148 -377 -348 -513 -553 -159 -240 -268 -494 -329
-767 -23 -103 -32 -160 -51 -312 -7 -60 -8 -322 -1 -396 12 -122 17 -159 50
-322 4 -16 8 -40 11 -55 15 -74 113 -341 165 -448 265 -545 729 -965 1295
-1174 111 -41 305 -94 380 -104 22 -3 47 -8 55 -11 8 -2 42 -7 75 -11 33 -3
74 -8 90 -10 45 -7 353 -7 410 0 339 39 555 101 831 236 541 266 965 746 1168
1324 26 74 54 167 61 204 2 13 6 30 9 39 3 9 8 33 11 52 3 19 8 42 10 50 6 20
12 62 20 130 4 30 8 69 10 85 5 40 6 352 1 390 -2 17 -7 62 -11 100 -4 39 -9
79 -11 90 -3 11 -9 44 -14 72 -15 87 -58 241 -99 353 -118 322 -290 589 -541
840 -111 112 -299 270 -320 270 -3 0 -99 -94 -214 -209 l-208 -209 63 -43
c238 -160 440 -383 573 -630 100 -187 156 -364 193 -604 10 -63 9 -362 -1
-435 -32 -238 -127 -511 -236 -680 -17 -25 -33 -52 -37 -60 -41 -87 -290 -354
-403 -433 -153 -106 -318 -201 -390 -222 -14 -4 -29 -11 -35 -15 -32 -24 -257
-82 -410 -107 -133 -21 -461 -4 -610 30 -450 106 -837 375 -1081 753 -147 227
-232 460 -271 744 -10 69 -10 358 -1 425 28 196 109 464 168 555 5 8 16 30 25
48 22 50 121 199 184 277 107 134 327 330 430 385 23 12 19 17 -185 221 -115
115 -212 209 -215 209 -4 0 -49 -32 -101 -72z"/>
</g>
</svg>
